<?xml version="1.0" encoding="utf-8"?>
<!-- Generator: Adobe Illustrator 16.0.0, SVG Export Plug-In . SVG Version: 6.00 Build 0)  -->
<!DOCTYPE svg PUBLIC "-//W3C//DTD SVG 1.1//EN" "http://www.w3.org/Graphics/SVG/1.1/DTD/svg11.dtd">
<svg version="1.1"
	 id="svg4" xmlns:rdf="http://www.w3.org/1999/02/22-rdf-syntax-ns#" xmlns:dc="http://purl.org/dc/elements/1.1/" xmlns:cc="http://creativecommons.org/ns#"
	 xmlns="http://www.w3.org/2000/svg" xmlns:xlink="http://www.w3.org/1999/xlink" x="0px" y="0px" width="612px" height="612px"
	 viewBox="0 90 612 612" enable-background="new 0 90 612 612" xml:space="preserve">
<path id="path2" fill="#FFFFFF" d="M114.75,90c-31.62-0.011-58.642,11.217-81.082,33.668C11.229,146.121,0,173.142,0,204.75v382.5
	c-0.011,31.62,11.217,58.642,33.668,81.082C56.121,690.771,83.142,702,114.75,702h382.5c31.62,0.012,58.642-11.217,81.082-33.668
	C600.771,645.88,612,618.858,612,587.25v-382.5c0.012-31.62-11.217-58.642-33.668-81.082C555.88,101.229,528.858,90,497.25,90
	H114.75z M241.752,226.365l4.051,4.848c-72.712,21.005-106.25,52.892-106.25,52.892s8.893-4.854,23.839-11.721
	c43.224-18.986,77.569-24.222,91.707-25.434c2.424-0.404,4.449-0.797,6.873-0.797c24.642-3.232,52.497-4.062,81.58-0.83
	c38.376,4.443,79.579,15.755,121.589,38.78c0,0-31.9-30.292-100.571-51.299l5.645-6.441c0,0,55.352-1.227,113.521,42.4
	c0,0,58.173,105.436,58.173,235.518c0,0-34.341,58.565-123.616,61.393c0,0-14.543-17.355-26.663-32.705
	c52.918-14.946,73.114-48.077,73.114-48.077c-16.563,10.906-32.313,18.588-46.451,23.839c-20.197,8.483-39.584,14.134-58.57,17.365
	c-38.78,7.271-74.325,5.257-104.623-0.398c-23.025-4.443-42.838-10.901-59.4-17.365c-9.291-3.636-19.385-8.091-29.485-13.746
	c-1.212-0.808-2.407-1.218-3.619-2.025c-0.808-0.404-1.223-0.791-1.627-1.195c-7.271-4.04-11.322-6.873-11.322-6.873
	s19.421,32.297,70.724,47.646c-12.119,15.351-27.095,33.536-27.095,33.536c-89.274-2.828-123.184-61.393-123.184-61.393
	c0-130.073,58.172-235.518,58.172-235.518c58.17-43.627,113.488-42.399,113.488-42.399L241.752,226.365z M230.463,377.042
	c-23.025,0-41.205,20.182-41.205,44.824s18.583,44.824,41.205,44.824c23.025,0,41.205-20.183,41.205-44.824
	C272.071,397.224,253.488,377.042,230.463,377.042L230.463,377.042z M377.885,377.042c-23.024,0-41.204,20.182-41.204,44.824
	s18.583,44.824,41.204,44.824c23.025,0,41.205-20.183,41.205-44.824S400.91,377.042,377.885,377.042z"/>
</svg>
