<svg class="w-full h-full" xmlns:xlink="http://www.w3.org/1999/xlink" version="1.2" xmlns="http://www.w3.org/2000/svg" viewBox="0 0 1080 1080" width="1080" height="1080">
                                <path class="fill-white" d="m540.3 5l531.7 536.4-211.1 222.1h-101.7v98.5l-218.9 212.7-220.5-212.7v-98.5h-100.1l-212.7-222.1z" fill="#FFFFFF"></path>
                                <path class="fill-dark" d="m540.3 158.8l382.7 382.6-110.5 118.9h-53.3-102.1v156.4l-116.8 116.3-117.7-116.3v-156.4h-156.4l-109.5-118.9z" fill="#12161D"></path>
                                <path class="fill-white" d="m836.1 550.8h-148.5l-101.2-109.5h155.9z" fill="#FFFFFF"></path>
                                <path class="fill-white" d="m250.2 550.8l94.3-109.5h147.1l-101.2 109.5z" fill="#FFFFFF"></path>
                                <path class="fill-white" d="m540.3 542.5l69.5 74.3-47.4 43.5-22.1 77.7-24.8-77.7-46.4-43.5z" fill="#FFFFFF"></path>
                              </svg>